<svg xmlns="http://www.w3.org/2000/svg" xmlns:xlink="http://www.w3.org/1999/xlink">


<symbol id="drops" viewBox="0 0 450.527 241.369">
	<g>
	<path fill-rule="evenodd" clip-rule="evenodd" fill="#E45028" d="M88.635,55.399c-0.349-0.211,8.641-10.13,6.157-15.938
		c-0.63-6.703-10.428-6.732-14.557-15.129C75.177,13.598,84.244,6.712,91.634,7.747c8.091,0.823,16.464,8.521,18.599,16.604
		c0.917,4.871,1.853,10.732-3.647,17.428C102.378,48.561,89.839,53.989,88.635,55.399z"/>
</g>
<g>
	<path fill-rule="evenodd" clip-rule="evenodd" fill="#F9B43B" d="M166.258,26.605c-0.229-0.048,2.804-7.127,0.375-9.796
		c-1.589-3.506-6.913-1.654-10.716-5.409c-4.743-4.843-1.104-10.296,3.099-11.145c4.544-1.098,10.521,1.471,13.184,5.437
		c1.405,2.46,3.003,5.453,1.265,10.124C172.443,20.286,166.649,25.612,166.258,26.605z"/>
</g>
<g>
	<path fill-rule="evenodd" clip-rule="evenodd" fill="#F9B43B" d="M390.979,85.785c0.297,0.081,1.074-10.269,5.551-12.002
		c4.004-3.249,9.104,2.208,15.854,0.002c8.514-2.941,7.587-11.706,3.184-15.277c-4.649-4.078-13.218-4.619-18.76-1.469
		c-3.148,2.105-6.85,4.732-7.67,11.402C387.6,74.435,391.128,84.355,390.979,85.785z"/>
</g>
<g>
	<path fill-rule="evenodd" clip-rule="evenodd" fill="#E45028" d="M413.539,222.698c0.139,0.273,8.389-5.729,12.708-3.484
		c5.132,0.927,4.508,8.214,10.716,11.858c7.951,4.496,13.864-1.771,13.553-7.338c-0.1-6.071-5.489-12.824-11.587-14.965
		c-3.699-1.016-8.161-2.113-13.692,1.518C419.723,212.949,414.707,221.899,413.539,222.698z"/>
</g>
<g>
	<path fill-rule="evenodd" clip-rule="evenodd" fill="#F9B43B" d="M47.977,223.166c0.022,0.232-7.637-0.575-9.47,2.533
		c-2.881,2.555,0.46,7.094-2.005,11.836c-3.227,5.961-9.511,4.094-11.563,0.328c-2.39-4.018-1.7-10.486,1.302-14.201
		c1.936-2.068,4.323-4.479,9.3-4.196C40.114,219.121,46.913,223.085,47.977,223.166z"/>
</g>
<g>
	<path fill-rule="evenodd" clip-rule="evenodd" fill="#E45028" d="M50.721,113.398c-0.063,0.44-14.106-4.43-18.943,0.528
		c-6.559,3.467-2.304,13.354-9.06,21.062c-8.732,9.633-19.717,3.403-21.894-4.482c-2.7-8.502,1.488-20.194,8.795-25.76
		c4.565-2.982,10.133-6.401,19.365-3.686C37.74,102.435,48.757,112.78,50.721,113.398z"/>
</g>
</symbol>


<symbol id="logo" viewBox="0 0 98.265 74.317">
	<path fill="#E55028" d="M70.098,32.877c-0.951,1.28-2.524,2.065-4.392,2.152c-2.689,0.125-3.996-2.211-4.227-7.18
	c-0.195-4.222,0.7-12.311,0.555-15.448L61.93,10.16c-0.896,0.041-5.063,17.529-7.315,20.628c-0.664,1.004-1.783,1.918-3.164,1.981
	c-3.176,0.147-5.363-3.42-5.619-8.948c-0.168-3.625,0.494-10.318,0.141-17.937c-0.038-0.824-0.203-1.152-0.352-1.146
	c-2.989,0.139-9.656,20.25-9.976,30.298c-0.044,1.463,0.219,3.921,0.578,5.215c-3.605-0.244-7.463-0.29-7.631-3.914
	c-0.154-3.324,1.577-10.404,3.644-16.679c1.444-4.371,7.037-19.38,12.939-19.653c6.537-0.304,5.774,11.524,6.294,22.693
	c0.083,1.791,0.144,3.101,0.375,4.063C57.981,8.958,59.122,3.7,62.783,3.531c2.093-0.098,3.717,2.635,3.887,6.296
	c0.099,2.129,0.073,6.435,0.195,9.05C67.411,30.645,68.626,30.214,70.098,32.877z"/>
<path fill="#E55028" d="M90.098,15.69c-0.048,2.364-6.179,11.961-12.003,11.842c-3.201-0.066-4.799-2.139-4.742-4.866
	c0.049-2.365,1.189-4.745,2.058-6.295c-5.588-0.951-6.262-3.551-6.231-5.006c0.059-2.911,2.857-4.384,4.64-4.348
	c1.419,0.029,1.832,1.202,1.816,1.968c-0.019,0.872-0.402,1.921-1.013,3.181c2.754,0.678,7.269,0.732,7.225,2.882
	c-0.04,1.964-3.348,5.211-3.402,7.868c-0.02,0.981,0.404,1.536,1.17,1.552c3.057,0.063,6.985-6.848,8.766-10.234
	C89.649,14.479,90.112,14.964,90.098,15.69z"/>
<path fill="#F9B43B" d="M94.032,41.441c-0.035,1.723-4.502,8.716-8.745,8.629c-2.334-0.048-3.497-1.558-3.456-3.546
	c0.035-1.725,0.867-3.457,1.5-4.587c-4.072-0.693-4.563-2.588-4.541-3.647c0.043-2.121,2.082-3.194,3.381-3.168
	c1.033,0.021,1.334,0.876,1.322,1.434c-0.013,0.636-0.293,1.399-0.736,2.318c2.006,0.494,5.295,0.533,5.263,2.099
	c-0.029,1.433-2.438,3.797-2.478,5.733c-0.016,0.716,0.295,1.12,0.852,1.132c2.228,0.046,5.09-4.99,6.387-7.458
	C93.706,40.559,94.044,40.912,94.032,41.441z"/>
<path fill="#F9B43B" d="M94.715,58.909c-0.028,1.357-3.547,6.866-6.89,6.798c-1.838-0.038-2.756-1.228-2.723-2.794
	c0.027-1.356,0.683-2.724,1.181-3.613c-3.207-0.545-3.595-2.038-3.577-2.873c0.035-1.671,1.641-2.516,2.664-2.495
	c0.814,0.017,1.052,0.689,1.043,1.13c-0.011,0.499-0.231,1.103-0.582,1.825c1.58,0.39,4.173,0.42,4.147,1.655
	c-0.023,1.127-1.923,2.989-1.954,4.517c-0.011,0.562,0.232,0.881,0.673,0.89c1.754,0.036,4.01-3.932,5.031-5.876
	C94.458,58.215,94.724,58.492,94.715,58.909z"/>
<path fill="#8BC334" d="M88.913,25.685c0.041-1.983,2.199-3.441,4.765-3.389c2.612,0.053,4.619,1.308,4.587,2.902
	c-0.053,2.565-2.671,5.125-5.283,5.072C90.368,30.217,88.882,27.185,88.913,25.685z"/>
<path fill="#F9B43B" d="M50.903,68.48c0.025-1.241,1.375-2.152,2.979-2.119c1.633,0.033,2.889,0.817,2.867,1.814
	c-0.032,1.604-1.669,3.204-3.303,3.171C51.812,71.313,50.884,69.418,50.903,68.48z"/>
<path fill="#E55028" d="M30.218,46.802c0.025-1.241,1.375-2.152,2.979-2.119c1.633,0.033,2.888,0.817,2.868,1.815
	c-0.033,1.603-1.669,3.203-3.303,3.17C31.127,49.635,30.198,47.739,30.218,46.802z"/>
<path fill="#F9B43B" d="M60.528,55.991c-0.062,2.992-2.562,6.684-8.605,6.56c-3.441-0.07-5.892-1.707-5.856-3.444
	c0.011-0.508,0.35-0.98,0.894-1.297c0.917,0.556,2.042,1.148,4.197,1.192c3.381,0.069,4.955-2.262,5.003-4.596
	c0.046-2.273-1.325-3.92-3.36-4.021c-1.734-0.036-3.321-0.037-4.502,0.626c-0.981-0.349-1.446-1.047-1.432-1.705
	c0.026-1.257,1.053-1.744,2.37-1.718c0.568,0.012,1.166,0.113,1.759,0.275c2.111-0.735,5.241-3.005,5.307-6.237
	c0.057-2.751-2.271-4.477-6.131-4.556c-0.809-0.017-1.648,0.057-2.519,0.158c0.202,0.334,0.315,0.666,0.309,0.994
	c-3.89,7.224-4.585,22.177-1.9,26.931c-0.398,0.441-2.318,0.642-3.185,0.624c-2.154-0.044-3.536-1.33-3.762-3.43
	c-0.854-6.542,1.331-16.736,3.201-21.785c0.256-0.804,0.539-1.456,0.85-2.049c-1.419,0.599-2.662,1.383-3.578,2.23
	c-0.982-0.288-1.657-0.932-1.645-1.56c0.004-0.209,0.068-0.388,0.191-0.596c0.683-1.152,5.832-4.1,12.624-3.961
	c8.826,0.182,11.26,4.183,11.205,6.815c-0.078,3.799-4.174,6.471-7.244,7.335C58.62,49.757,60.591,52.97,60.528,55.991z"/>
<path fill="#F9B43B" d="M84.269,41.924c-0.025,1.235-4.68,9.245-9.137,9.153c-1.82-0.037-2.973-1.038-3.353-3.129
	c-1.301,1.568-3.056,3.028-5.007,2.988c-2.277-0.047-3.387-1.501-3.33-4.234c0.022-1.104,0.296-3.312,0.342-5.557
	c0.03-1.461-0.02-2.214-0.226-3.291c0.946-0.143,1.86-0.287,2.771-0.269c1.593,0.032,2.261,0.827,2.224,2.648
	c-0.021,1.074-0.368,3.67-0.404,5.46c-0.025,1.236,0.191,1.727,0.549,1.734c0.488,0.01,1.775-0.809,3.018-2.703
	c0.126-1.397,0.319-2.857,0.345-4.094c0.024-1.171-0.056-2.052-0.241-2.574c0.557-0.088,1.207-0.172,1.794-0.159
	c2.082,0.042,3.003,1.134,2.95,3.704c-0.018,0.846-0.453,3.083-0.485,4.645c-0.03,1.496,0.149,2.216,0.735,2.228
	c1.105,0.022,4.277-3.882,5.82-7.722C83.419,40.539,84.29,40.915,84.269,41.924z"/>
<path fill="#F9B43B" d="M77.202,60.895c-2.256,0.077-4.504,0.913-6.465,2.147l-0.014,0.711c-0.08,3.894-1.665,10.649-5.854,10.563
	c-1.74-0.035-2.698-1.084-2.661-2.897c0.058-2.818,2.301-5.81,5.189-8.077c0.003-0.172,0.007-0.319-0.016-0.444
	c-0.851,0.867-1.79,1.288-2.795,1.268c-1.666-0.034-2.599-1.181-2.559-3.115c0.06-2.941,3.23-5.743,6.269-5.681
	c1.004,0.021,1.999,0.435,1.982,1.243c-0.012,0.612-0.657,0.99-1.986,1.305c-0.164-0.418-0.381-0.595-0.601-0.599
	c-1.054-0.021-2.375,2.279-2.407,3.847c-0.014,0.687,0.176,0.959,0.471,0.965c0.637,0.014,1.696-1.46,1.355-2.789
	c1.193-0.761,1.511-0.754,1.976-0.745c1.03,0.021,1.481,0.717,1.613,2.632c1.906-0.965,3.879-1.538,5.545-1.504
	C76.858,59.736,77.39,60.114,77.202,60.895z M67.22,66.058c-1.606,1.877-2.631,4.014-2.671,5.999
	c-0.011,0.515,0.104,0.858,0.399,0.864C66.074,72.944,66.914,69.04,67.22,66.058z"/>
<path fill="#F9B43B" d="M87.722,60.522c-0.023,1.176-4.121,7.342-8.676,7.248c-3.455-0.07-5.904-2.522-5.836-5.879
	c0.066-3.234,2.178-5.763,4.822-5.709c1.887,0.039,2.989,1.262,2.948,3.271c-0.044,2.156-1.718,3.715-3.185,4.688
	c0.475,0.794,1.151,1.25,1.984,1.267c1.886,0.039,4.408-2.263,6.316-5.679C87.083,59.431,87.739,59.713,87.722,60.522z
	 M77.056,60.843c-0.01,0.467,0.005,0.907,0.07,1.301c0.775-0.794,1.383-1.712,1.406-2.839c0.011-0.539-0.177-0.91-0.398-0.915
	C77.669,58.38,77.081,59.594,77.056,60.843z"/>
<polygon fill-rule="evenodd" clip-rule="evenodd" fill="#E55028" points="0.004,29.345 0.002,29.345 0,29.35 "/>
<g>
	<path fill-rule="evenodd" clip-rule="evenodd" fill="#E55028" d="M16.591,51.478c0.337-0.337,0.674-0.673,1.104-1.103
		c0.116,0.836-0.023,1.49-0.405,2.104c-0.055,0.118-0.111,0.234-0.164,0.351c-0.107,0.34-0.333,0.576-0.631,0.754
		c-0.067,0.046-0.136,0.094-0.205,0.141c-0.119,0.075-0.241,0.148-0.361,0.222c-0.079,0.021-0.158,0.038-0.237,0.057
		c0.008,0.119,0.015,0.239,0.023,0.359c1.227,0.24,2.442,0.3,3.628-0.206c1.134-0.483,1.828-1.463,2.63-2.317
		c0.106-0.254,0.296-0.423,0.524-0.562c0.157-0.273,0.365-0.497,0.646-0.646c0.177-0.271,0.427-0.451,0.722-0.569
		c0.478-0.575,1.177-0.62,1.832-0.776c-0.083-0.703-0.898-0.643-1.186-1.135c-1.96-1.289-3.993-2.394-6.42-2.469
		c-0.127,0.037-0.252,0.076-0.38,0.114c-0.26,0.09-0.516,0.183-0.776,0.264c-2.304,0.732-4.358,2.038-6.617,2.875
		c-1.697,0.631-3.445,0.862-5.247,0.731c-0.536-0.04-1.04-0.441-1.604-0.149c0.951,1.728,2.491,2.779,4.218,3.572
		c1.992,0.916,4.024,0.583,6.045,0.054c0.499-0.235,0.998-0.472,1.496-0.706C15.681,52.117,16.136,51.796,16.591,51.478z"/>
	<path fill-rule="evenodd" clip-rule="evenodd" fill="#F9B43B" d="M32.426,58.221c-1.174-0.394-2.376-0.705-3.583-0.242
		c-1.696,0.652-3.396,1.288-5.128,1.84c-1.39,0.442-2.796,0.794-4.283,0.647c-0.32-0.032-0.71-0.216-1.011,0.236
		c2.812,1.149,5.504,2.677,8.71,1.845c0.903-0.364,1.808-0.727,2.711-1.091c0.066-0.042,0.133-0.082,0.199-0.122
		c1.264-0.631,2.45-1.41,3.77-1.928C33.724,58.573,32.918,58.577,32.426,58.221z"/>
	<path fill-rule="evenodd" clip-rule="evenodd" fill="#F9B43B" d="M22.016,35.08c-0.822-0.457-1.882-0.436-2.76-0.384
		c-1.202,0.067-2.362,0.073-3.533-0.165c-0.092-0.045-0.183-0.089-0.273-0.132c0.328,0.908,0.994,1.563,1.633,2.256
		c0.411,0.444,0.821,0.54,1.39,0.581c1.492,0.108,2.934-0.383,4.417-0.295c0.226,0.058,0.453,0.114,0.678,0.173
		C23.249,36.28,22.77,35.498,22.016,35.08z"/>
	<path fill-rule="evenodd" clip-rule="evenodd" fill="#E55028" d="M38.82,70.154c-1.171-0.494-2.296-0.518-3.313,0.302
		c-0.573,0.464-1.194,0.786-1.997,1.032c1.17,0.57,2.313,0.802,3.478,0.628c0.804-0.116,1.623-0.376,2.042-1.234
		C39.193,70.544,39.27,70.343,38.82,70.154z"/>
</g>
</symbol>
	


	<symbol  id="map-marker" viewBox="0 0 46 57.727">
		<g>
	<path fill-rule="evenodd" clip-rule="evenodd" fill="#E45028" d="M23.122,57.727c-0.062,0-0.123,0-0.185,0
		c-0.072-0.075-0.135-0.164-0.217-0.225c-2.822-2.075-5.493-4.324-8.019-6.756c-2.671-2.571-5.124-5.331-7.328-8.306
		c-1.932-2.606-3.591-5.385-4.87-8.378c-1.147-2.684-1.96-5.454-2.283-8.364C-0.254,21.4,0.36,17.281,2.184,13.349
		c1.403-3.024,3.372-5.619,5.893-7.794c1.649-1.423,3.468-2.591,5.453-3.483c1.698-0.764,3.453-1.367,5.3-1.667
		C19.706,0.261,20.584,0.134,21.462,0c1.045,0,2.09,0,3.136,0c0.117,0.029,0.232,0.072,0.352,0.083
		c2.025,0.199,3.996,0.612,5.915,1.316c4.017,1.475,7.367,3.869,10.053,7.188c2.196,2.713,3.689,5.781,4.486,9.182
		c1.039,4.431,0.682,8.784-0.766,13.069c-1.745,5.164-4.655,9.661-8.084,13.835c-1.517,1.847-3.16,3.595-4.81,5.326
		c-2.173,2.279-4.521,4.374-6.977,6.347C24.209,56.794,23.67,57.266,23.122,57.727z"/>
</g>
<path fill="#FFFFFF" d="M29.899,18.672c-0.405,0.546-1.076,0.881-1.873,0.918c-1.147,0.053-1.704-0.943-1.803-3.063
	c-0.083-1.801,0.299-5.251,0.236-6.589l-0.044-0.956C26.033,9,24.257,16.46,23.295,17.782c-0.283,0.428-0.761,0.818-1.349,0.845
	c-1.354,0.063-2.288-1.459-2.397-3.817c-0.072-1.546,0.211-4.401,0.06-7.651c-0.016-0.352-0.086-0.492-0.15-0.489
	c-1.274,0.06-4.118,8.638-4.255,12.923c-0.019,0.624,0.094,1.672,0.247,2.225c-1.538-0.104-3.183-0.124-3.255-1.669
	c-0.066-1.418,0.672-4.438,1.554-7.114c0.616-1.865,3.002-8.267,5.52-8.383c2.788-0.129,2.463,4.916,2.685,9.68
	c0.035,0.764,0.061,1.322,0.16,1.733c2.617-7.594,3.104-9.837,4.665-9.909c0.894-0.042,1.586,1.124,1.658,2.686
	c0.042,0.908,0.031,2.745,0.084,3.86C28.754,17.72,29.271,17.537,29.899,18.672z"/>
<path fill="#FFFFFF" d="M38.431,11.342c-0.021,1.008-2.636,5.102-5.12,5.051c-1.365-0.028-2.047-0.912-2.022-2.075
	c0.021-1.009,0.507-2.024,0.878-2.686c-2.384-0.405-2.671-1.514-2.658-2.135c0.025-1.242,1.219-1.87,1.979-1.854
	c0.605,0.012,0.782,0.513,0.775,0.839c-0.008,0.372-0.172,0.819-0.433,1.356c1.175,0.289,3.101,0.313,3.082,1.229
	c-0.017,0.837-1.428,2.223-1.451,3.356c-0.009,0.418,0.172,0.655,0.499,0.662c1.304,0.027,2.979-2.92,3.739-4.365
	C38.239,10.825,38.437,11.032,38.431,11.342z"/>
<path fill="#FFFFFF" d="M40.108,22.326c-0.015,0.735-1.92,3.718-3.729,3.681c-0.996-0.021-1.492-0.665-1.475-1.513
	c0.016-0.735,0.37-1.475,0.64-1.957c-1.736-0.295-1.946-1.104-1.937-1.556c0.019-0.905,0.888-1.362,1.442-1.351
	c0.44,0.009,0.568,0.374,0.563,0.611c-0.005,0.271-0.125,0.597-0.313,0.989c0.855,0.211,2.258,0.228,2.244,0.895
	c-0.013,0.611-1.04,1.62-1.057,2.446c-0.007,0.305,0.126,0.478,0.363,0.483c0.95,0.02,2.171-2.129,2.725-3.181
	C39.97,21.949,40.114,22.1,40.108,22.326z"/>
<path fill="#FFFFFF" d="M40.399,29.777c-0.012,0.578-1.513,2.928-2.938,2.899c-0.783-0.017-1.176-0.523-1.161-1.192
	c0.012-0.578,0.291-1.161,0.504-1.541c-1.368-0.232-1.533-0.869-1.526-1.226c0.016-0.713,0.7-1.073,1.137-1.064
	c0.348,0.007,0.448,0.294,0.444,0.482c-0.004,0.213-0.099,0.471-0.248,0.778c0.674,0.166,1.78,0.18,1.77,0.706
	c-0.01,0.48-0.82,1.275-0.834,1.927c-0.004,0.239,0.1,0.376,0.287,0.379c0.748,0.016,1.711-1.677,2.146-2.506
	C40.29,29.48,40.403,29.598,40.399,29.777z"/>
<path fill="#FFFFFF" d="M37.925,15.604c0.018-0.846,0.938-1.468,2.033-1.445c1.114,0.022,1.97,0.558,1.956,1.238
	c-0.022,1.095-1.14,2.186-2.254,2.164C38.546,17.538,37.912,16.245,37.925,15.604z"/>
<path fill="#FFFFFF" d="M21.712,33.859c0.011-0.529,0.586-0.918,1.271-0.904c0.696,0.015,1.231,0.35,1.223,0.774
	c-0.014,0.684-0.712,1.367-1.409,1.353S21.704,34.258,21.712,33.859z"/>
<path fill="#FFFFFF" d="M12.889,24.612c0.011-0.53,0.587-0.918,1.271-0.904c0.697,0.014,1.232,0.349,1.223,0.774
	c-0.014,0.684-0.712,1.366-1.409,1.352C13.277,25.82,12.881,25.012,12.889,24.612z"/>
<path fill="#FFFFFF" d="M25.817,28.532c-0.025,1.276-1.092,2.851-3.67,2.798c-1.468-0.03-2.513-0.729-2.498-1.469
	c0.004-0.217,0.149-0.419,0.381-0.554c0.391,0.237,0.871,0.49,1.79,0.509c1.442,0.029,2.114-0.965,2.134-1.96
	c0.02-0.969-0.565-1.672-1.434-1.715c-0.74-0.015-1.417-0.016-1.92,0.267c-0.418-0.148-0.617-0.446-0.611-0.727
	c0.011-0.536,0.449-0.744,1.011-0.733c0.243,0.005,0.498,0.048,0.75,0.118c0.901-0.313,2.236-1.282,2.264-2.661
	c0.023-1.173-0.97-1.909-2.616-1.943c-0.345-0.007-0.703,0.024-1.074,0.067c0.086,0.143,0.135,0.284,0.132,0.424
	c-1.659,3.082-1.956,9.459-0.81,11.487c-0.17,0.188-0.989,0.273-1.359,0.266c-0.919-0.019-1.508-0.566-1.604-1.463
	c-0.364-2.79,0.568-7.138,1.365-9.292c0.109-0.343,0.23-0.621,0.363-0.874c-0.605,0.255-1.136,0.59-1.526,0.952
	c-0.419-0.123-0.707-0.397-0.701-0.666c0.002-0.089,0.029-0.165,0.082-0.254c0.292-0.492,2.488-1.749,5.385-1.689
	c3.765,0.078,4.802,1.784,4.78,2.907c-0.034,1.62-1.78,2.76-3.091,3.128C25.004,25.873,25.845,27.243,25.817,28.532z"/>
<path fill="#FFFFFF" d="M35.944,22.531c-0.011,0.527-1.996,3.944-3.897,3.904c-0.776-0.016-1.268-0.442-1.43-1.334
	c-0.556,0.669-1.304,1.292-2.136,1.274c-0.972-0.02-1.444-0.64-1.421-1.806c0.01-0.471,0.127-1.413,0.146-2.371
	c0.013-0.623-0.009-0.944-0.097-1.404c0.404-0.061,0.794-0.122,1.183-0.114c0.679,0.014,0.964,0.353,0.948,1.13
	c-0.01,0.458-0.157,1.565-0.173,2.329c-0.011,0.527,0.082,0.737,0.234,0.74c0.208,0.004,0.757-0.345,1.287-1.153
	c0.054-0.596,0.136-1.219,0.147-1.746c0.01-0.5-0.024-0.875-0.104-1.098c0.237-0.038,0.515-0.073,0.766-0.068
	c0.888,0.018,1.28,0.483,1.258,1.58c-0.007,0.361-0.192,1.315-0.207,1.981c-0.013,0.638,0.064,0.945,0.314,0.95
	c0.471,0.009,1.824-1.656,2.482-3.294C35.582,21.941,35.953,22.101,35.944,22.531z"/>
<path fill="#FFFFFF" d="M32.93,30.624c-0.962,0.032-1.921,0.389-2.757,0.916l-0.006,0.303c-0.034,1.661-0.711,4.543-2.497,4.506
	c-0.742-0.015-1.151-0.462-1.135-1.236c0.024-1.201,0.981-2.478,2.213-3.444c0.002-0.073,0.003-0.137-0.007-0.19
	c-0.362,0.37-0.763,0.55-1.191,0.541c-0.711-0.015-1.108-0.504-1.092-1.328c0.025-1.255,1.378-2.45,2.674-2.424
	c0.429,0.009,0.853,0.186,0.846,0.53c-0.005,0.262-0.28,0.423-0.848,0.557c-0.069-0.178-0.162-0.254-0.256-0.255
	c-0.449-0.01-1.013,0.972-1.026,1.641c-0.006,0.293,0.074,0.409,0.2,0.411c0.271,0.006,0.724-0.622,0.578-1.189
	c0.51-0.324,0.645-0.321,0.843-0.317c0.439,0.009,0.632,0.306,0.688,1.122c0.813-0.411,1.654-0.656,2.365-0.642
	C32.783,30.129,33.01,30.291,32.93,30.624z M28.672,32.826c-0.685,0.8-1.122,1.712-1.139,2.559c-0.005,0.22,0.044,0.366,0.17,0.369
	C28.184,35.763,28.542,34.098,28.672,32.826z"/>
<path fill="#FFFFFF" d="M37.417,30.464c-0.01,0.502-1.758,3.132-3.7,3.092c-1.474-0.03-2.519-1.076-2.489-2.508
	c0.028-1.38,0.929-2.458,2.057-2.435c0.805,0.017,1.275,0.538,1.258,1.395c-0.02,0.92-0.733,1.585-1.358,2
	c0.202,0.339,0.491,0.533,0.847,0.54c0.804,0.017,1.88-0.965,2.693-2.422C37.145,29.999,37.425,30.12,37.417,30.464z M32.867,30.601
	c-0.004,0.199,0.003,0.387,0.03,0.555c0.331-0.338,0.59-0.73,0.6-1.211c0.005-0.229-0.075-0.388-0.17-0.39
	C33.129,29.55,32.878,30.069,32.867,30.601z"/>
<polygon fill-rule="evenodd" clip-rule="evenodd" fill="#FFFFFF" points="0.001,17.166 0.001,17.166 0,17.168 "/>
<g>
	<path fill-rule="evenodd" clip-rule="evenodd" fill="#FFFFFF" d="M7.077,26.606c0.144-0.144,0.288-0.287,0.471-0.47
		c0.049,0.356-0.01,0.636-0.173,0.897c-0.023,0.05-0.047,0.1-0.07,0.149c-0.046,0.145-0.142,0.246-0.27,0.321
		c-0.028,0.02-0.058,0.04-0.087,0.06c-0.051,0.032-0.103,0.063-0.154,0.095c-0.034,0.009-0.067,0.016-0.101,0.024
		c0.003,0.051,0.006,0.102,0.01,0.153c0.523,0.103,1.042,0.128,1.548-0.088c0.483-0.206,0.779-0.624,1.122-0.988
		c0.045-0.108,0.126-0.181,0.224-0.24c0.067-0.116,0.156-0.212,0.275-0.275c0.076-0.116,0.182-0.193,0.308-0.243
		c0.204-0.245,0.502-0.265,0.782-0.331c-0.036-0.3-0.383-0.274-0.506-0.484c-0.836-0.55-1.703-1.021-2.738-1.053
		c-0.054,0.016-0.108,0.033-0.162,0.049c-0.111,0.038-0.22,0.078-0.331,0.112c-0.983,0.313-1.859,0.87-2.822,1.227
		c-0.724,0.269-1.47,0.368-2.238,0.312c-0.229-0.017-0.443-0.188-0.684-0.064c0.405,0.737,1.063,1.186,1.799,1.524
		c0.85,0.391,1.717,0.249,2.579,0.022c0.213-0.1,0.425-0.201,0.638-0.301C6.688,26.879,6.883,26.742,7.077,26.606z"/>
	<path fill-rule="evenodd" clip-rule="evenodd" fill="#FFFFFF" d="M13.831,29.483c-0.501-0.168-1.014-0.301-1.528-0.104
		c-0.724,0.278-1.449,0.55-2.188,0.785c-0.593,0.188-1.192,0.338-1.827,0.276c-0.136-0.015-0.303-0.093-0.431,0.101
		c1.2,0.49,2.348,1.142,3.715,0.786c0.385-0.155,0.771-0.31,1.156-0.465c0.028-0.018,0.057-0.035,0.085-0.052
		c0.539-0.27,1.045-0.602,1.608-0.822C14.385,29.633,14.041,29.635,13.831,29.483z"/>
	<path fill-rule="evenodd" clip-rule="evenodd" fill="#FFFFFF" d="M9.391,19.612c-0.351-0.195-0.803-0.186-1.177-0.164
		C7.7,19.478,7.206,19.48,6.707,19.378c-0.039-0.019-0.078-0.038-0.117-0.056c0.14,0.388,0.424,0.667,0.697,0.962
		c0.175,0.189,0.35,0.23,0.592,0.248c0.637,0.046,1.251-0.163,1.884-0.125c0.096,0.024,0.193,0.049,0.289,0.074
		C9.917,20.124,9.712,19.791,9.391,19.612z"/>
	<path fill-rule="evenodd" clip-rule="evenodd" fill="#FFFFFF" d="M16.559,34.573c-0.5-0.211-0.979-0.221-1.413,0.129
		c-0.244,0.198-0.509,0.335-0.852,0.44c0.499,0.243,0.986,0.342,1.483,0.268c0.343-0.05,0.692-0.16,0.871-0.526
		C16.717,34.739,16.75,34.653,16.559,34.573z"/>
</g>
	</symbol>
</svg>